<svg width="20" height="19" viewBox="0 0 20 19" fill="none" xmlns="http://www.w3.org/2000/svg">
<path d="M16.1933 11.4866L16.2896 10.9049H15.7H10.6957V8.63932H18.9225C18.9744 9.01578 19 9.37679 19 9.72266C19 11.4386 18.6335 12.9524 17.9121 14.2768C17.192 15.5986 16.1683 16.6296 14.8314 17.3759C13.4969 18.1208 11.9564 18.5 10.1957 18.5C8.93906 18.5 7.7464 18.2631 6.61355 17.7902C5.47303 17.3141 4.49641 16.6741 3.67784 15.872C2.85935 15.0701 2.20717 14.1142 1.72231 12.9992C1.24087 11.892 1 10.7271 1 9.5C1 8.27291 1.24087 7.10801 1.72231 6.00081C2.20717 4.88577 2.85935 3.92994 3.67784 3.12797C4.49641 2.32592 5.47303 1.6859 6.61355 1.20978C7.7464 0.736865 8.93906 0.5 10.1957 0.5C12.4119 0.5 14.3236 1.16688 15.952 2.50161L14.0465 4.29723C12.9758 3.42992 11.6837 3.00065 10.1957 3.00065C9.02336 3.00065 7.93272 3.29121 6.93333 3.87248C5.9373 4.4518 5.14515 5.24136 4.56293 6.23522C3.97837 7.23308 3.68638 8.32462 3.68638 9.5C3.68638 10.6754 3.97837 11.7669 4.56293 12.7648C5.14515 13.7586 5.9373 14.5482 6.93333 15.1275C7.93272 15.7088 9.02336 15.9993 10.1957 15.9993C10.9731 15.9993 11.6988 15.8942 12.3689 15.6784C13.0209 15.4684 13.5795 15.1988 14.0307 14.8602C14.4608 14.5374 14.838 14.1682 15.1607 13.7526C15.4748 13.3481 15.718 12.9504 15.8785 12.5598C16.0291 12.1929 16.1357 11.8349 16.1933 11.4866Z" fill="black" stroke="#0F0F0F"/>
</svg>
