<svg width="21" height="20" viewBox="0 0 21 20" fill="none" xmlns="http://www.w3.org/2000/svg">
<path d="M14.5 2.5009C14.7189 2.28203 14.9787 2.10842 15.2647 1.98996C15.5506 1.87151 15.8571 1.81055 16.1667 1.81055C16.4762 1.81055 16.7827 1.87151 17.0687 1.98996C17.3546 2.10842 17.6145 2.28203 17.8333 2.5009C18.0522 2.71977 18.2258 2.97961 18.3443 3.26558C18.4627 3.55154 18.5237 3.85804 18.5237 4.16757C18.5237 4.4771 18.4627 4.7836 18.3443 5.06956C18.2258 5.35553 18.0522 5.61537 17.8333 5.83424L6.58333 17.0842L2 18.3342L3.25 13.7509L14.5 2.5009Z" stroke="#1D1D24" stroke-width="2" stroke-linecap="round" stroke-linejoin="round"/>
</svg>
