<svg width="21" height="20" viewBox="0 0 21 20" fill="none" xmlns="http://www.w3.org/2000/svg">
<path d="M2.8335 5H4.50016H17.8335" stroke="#B11C1C" stroke-width="2" stroke-linecap="round" stroke-linejoin="round"/>
<path d="M7 4.99935V3.33268C7 2.89065 7.17559 2.46673 7.48816 2.15417C7.80072 1.84161 8.22464 1.66602 8.66667 1.66602H12C12.442 1.66602 12.866 1.84161 13.1785 2.15417C13.4911 2.46673 13.6667 2.89065 13.6667 3.33268V4.99935M16.1667 4.99935V16.666C16.1667 17.108 15.9911 17.532 15.6785 17.8445C15.366 18.1571 14.942 18.3327 14.5 18.3327H6.16667C5.72464 18.3327 5.30072 18.1571 4.98816 17.8445C4.67559 17.532 4.5 17.108 4.5 16.666V4.99935H16.1667Z" stroke="#B11C1C" stroke-width="2" stroke-linecap="round" stroke-linejoin="round"/>
</svg>
